<?xml version="1.0" encoding="utf-8"?>
<svg id="Layer_1" enable-background="new 0 0 512 512" height="512" viewBox="0 0 512 512" width="512" xmlns="http://www.w3.org/2000/svg" xmlns:bx="https://boxy-svg.com">
  <defs>
    <bx:grid x="0" y="0" width="6.435" height="6.435"/>
  </defs>
  <g>
    <g transform="matrix(1, 0, 0, 1, 0, -1)">
      <path d="M 344 466.105 L 344 362.895 C 344 362.401 342.657 362 341 362 L 171 362 C 169.343 362 168 362.401 168 362.895 L 168 466.105 C 168 466.599 169.343 467 171 467 L 341 467 C 342.657 467 344 466.599 344 466.105 Z" style="fill: rgb(215, 100, 0);"/>
    </g>
    <path d="m352 64h-40v-40c0-13.23-10.77-24-24-24h-64c-13.23 0-24 10.77-24 24v40h-40c-22.06 0-40 17.94-40 40v368c0 22.06 17.94 40 40 40h192c22.06 0 40-17.94 40-40v-368c0-22.06-17.94-40-40-40zm8 400c0 8.82-7.18 16-16 16h-176c-8.82 0-16-7.18-16-16v-352c0-8.82 7.18-16 16-16h176c8.82 0 16 7.18 16 16z" style="fill: rgb(215, 100, 0);"/>
  </g>
</svg>